<svg width="158" height="158" viewBox="0 0 158 158" fill="none" xmlns="http://www.w3.org/2000/svg">
<path fill-rule="evenodd" clip-rule="evenodd" d="M18 0C8.05887 0 0 8.05887 0 18V140C0 149.941 8.05887 158 18 158H140C149.941 158 158 149.941 158 140V18C158 8.05887 149.941 0 140 0H18ZM68.1065 138.131L124.417 72.4904C125.896 70.6972 124.362 68.0347 122.061 68.5237L63.9983 79.6087C64.3269 78.5219 65.1486 77.5982 66.1893 77.1635L85.5802 68.9041C86.4566 68.578 87.0591 67.8173 87.2235 66.8936L95.2208 22.8797C95.659 20.4345 92.5368 18.9674 90.8935 20.8692L34.5834 86.5639C33.1044 88.3028 34.6381 90.9653 36.9387 90.5306L95.0017 79.3913C94.6731 80.4781 93.8514 81.4018 92.8107 81.8365L73.4198 90.0959C72.5434 90.422 71.9409 91.1827 71.7765 92.1064L63.7792 136.12C63.341 138.566 66.4632 140.033 68.1065 138.131Z" fill="white"/>
</svg>
