<svg width="158" height="158" viewBox="0 0 158 158" fill="none" xmlns="http://www.w3.org/2000/svg">
<rect width="158" height="158" rx="18" fill="#B5FF3B"/>
<path d="M124.417 72.4904L68.1065 138.131C66.4632 140.033 63.341 138.566 63.7792 136.12L71.7765 92.1064C71.9409 91.1827 72.5434 90.422 73.4198 90.0959L92.8107 81.8365C93.8514 81.4018 94.6731 80.4781 95.0017 79.3913L36.9387 90.5306C34.6381 90.9653 33.1044 88.3028 34.5834 86.564L90.8935 20.8692C92.5368 18.9674 95.659 20.4345 95.2208 22.8797L87.2235 66.8936C87.0591 67.8173 86.4566 68.578 85.5802 68.9041L66.1893 77.1635C65.1486 77.5982 64.3269 78.5219 63.9983 79.6087L122.061 68.5237C124.362 68.0347 125.896 70.6972 124.417 72.4904Z" fill="#2D2D2D"/>
</svg>
