<svg width="817" height="158" viewBox="0 0 817 158" fill="none" xmlns="http://www.w3.org/2000/svg">
<path d="M243.499 77.5709C233.446 74.6744 225.949 71.1814 220.753 67.0922C215.641 63.0029 213 57.3801 213 50.1387C213 42.4713 216.067 36.2521 222.116 31.4813C228.164 26.7105 237.11 24.3251 249.037 24.3251C257.812 24.3251 267.268 25.3474 277.491 27.3068V39.6599C266.331 37.7856 256.875 36.8485 248.952 36.8485C241.029 36.8485 235.406 38.0412 231.998 40.4266C228.59 42.812 226.887 46.0494 226.887 50.0535C226.887 53.2056 228.505 55.9318 231.828 58.232C235.15 60.5323 241.966 63.1733 252.189 66.0698C262.412 68.9664 270.08 72.2889 275.276 76.2078C280.388 80.0415 283.029 85.5791 283.029 92.8206C283.029 100.488 279.877 106.792 273.573 111.819C267.268 116.76 257.982 119.316 245.629 119.316C234.639 119.316 223.99 118.293 213.767 116.334V103.981C224.842 105.855 235.491 106.792 245.714 106.792C254.063 106.792 260.027 105.514 263.69 102.873C267.268 100.232 269.142 96.9098 269.142 92.8206C269.142 89.6684 267.353 87.1126 263.86 84.9828C260.282 82.9381 253.552 80.4675 243.499 77.5709Z" fill="white"/>
<path d="M312.336 65.8987C310.035 68.5397 308.928 72.4586 308.928 77.7406V118.633H295.041V77.3146C295.041 67.347 297.767 60.3611 303.135 56.2719C308.502 52.1826 316.084 50.1379 325.881 50.1379C335.764 50.1379 343.346 52.1826 348.713 56.2719C354.08 60.3611 356.721 67.347 356.721 77.3146V118.633H342.835V77.7406C342.835 72.4586 341.727 68.5397 339.427 65.8987C337.127 63.2577 332.697 61.9798 325.966 61.9798C319.066 61.9798 314.551 63.2577 312.336 65.8987Z" fill="white"/>
<path d="M413.46 113.945C408.519 117.523 402.129 119.397 394.206 119.397C385.772 119.397 379.042 117.608 374.1 113.945C369.159 110.367 366.689 105.34 366.689 99.0361C366.689 91.7947 369.5 86.3423 375.123 82.7642C380.746 79.1009 389.009 77.3118 399.829 77.2266H413.375V74.5004C413.375 70.9223 412.011 67.9406 409.285 65.5551C406.559 63.1697 402.044 61.977 395.654 61.977C389.861 61.977 382.449 62.2326 373.419 62.829V52.4354C380.916 50.9019 388.328 50.2203 395.74 50.2203C406.474 50.2203 414.397 52.3502 419.508 56.695C424.62 60.9547 427.261 67.1738 427.261 75.3524V118.716H413.375V113.945H413.46ZM413.46 87.4498H399.999C393.013 87.4498 388.072 88.387 385.09 90.2612C382.109 92.1355 380.66 94.6061 380.66 97.7582C380.66 100.484 381.768 102.785 384.068 104.744C386.368 106.704 389.52 107.641 393.61 107.641C399.914 107.641 404.855 106.533 408.263 104.403C411.756 102.273 413.46 99.2065 413.46 95.3728V87.4498Z" fill="white"/>
<path d="M453.757 147H439.87V84.3829C439.87 72.8818 442.852 64.2772 448.901 58.6545C454.949 53.0317 462.872 50.2203 472.755 50.2203C482.552 50.2203 490.475 53.0317 496.524 58.6545C502.572 64.2772 505.639 72.8818 505.639 84.3829C505.639 95.884 502.828 104.574 497.205 110.452C491.582 116.33 484.085 119.227 474.799 119.227C465.087 119.227 458.101 116.927 453.757 112.241V147ZM458.101 67.5998C455.205 71.3483 453.671 76.9711 453.671 84.3829C453.671 93.1578 455.12 99.2917 458.101 102.614C460.998 105.937 465.854 107.555 472.584 107.555C479.4 107.555 484.256 105.596 487.238 101.592C490.134 97.5878 491.668 91.8799 491.668 84.3829C491.668 76.9711 490.219 71.3483 487.238 67.5998C484.341 63.8513 479.4 61.977 472.584 61.977C465.939 61.977 461.083 63.8513 458.101 67.5998Z" fill="white"/>
<path d="M570.3 64.7889C562.207 62.9147 555.476 61.9775 550.109 61.9775C542.357 61.9775 536.904 63.8518 533.752 67.6003C530.6 71.3488 528.981 76.9716 528.981 84.3834C528.981 91.8804 530.6 97.5884 533.752 101.592C536.904 105.597 542.357 107.556 550.109 107.556C555.476 107.556 562.207 106.874 570.3 105.426V116.246C561.866 118.29 555.136 119.398 550.024 119.398C539.29 119.398 530.856 116.501 524.551 110.623C518.247 104.745 515.095 96.0549 515.095 84.5538C515.095 73.0527 518.247 64.4481 524.551 58.8254C530.856 53.2026 539.29 50.3912 550.024 50.3912C555.136 50.3912 561.866 51.3284 570.3 53.2878V64.7889Z" fill="white"/>
<path d="M595.944 55.7589C600.545 52.0956 607.36 50.2213 616.305 50.2213C625.677 50.2213 632.662 52.266 637.093 56.3553C641.523 60.4445 643.738 67.4304 643.738 77.398V118.717H629.851V77.824C629.851 72.542 628.829 68.6231 626.784 65.9821C624.739 63.3411 620.395 62.0632 613.664 62.0632C607.701 62.0632 603.356 63.3411 600.374 65.9821C597.478 68.6231 595.944 72.542 595.944 77.824V118.717H582.058V21H595.944V55.7589Z" fill="white"/>
<path d="M700.474 113.945C695.533 117.523 689.144 119.397 681.221 119.397C672.787 119.397 666.056 117.608 661.115 113.945C656.174 110.282 653.703 105.34 653.703 99.0361C653.703 91.7947 656.515 86.3423 662.137 82.7642C667.76 79.1009 676.024 77.3118 686.843 77.2266H700.389V74.5004C700.389 70.9223 699.026 67.9406 696.3 65.5551C693.574 63.1697 689.058 61.977 682.669 61.977C676.876 61.977 669.464 62.2326 660.433 62.829V52.4354C667.931 50.9019 675.342 50.2203 682.754 50.2203C693.489 50.2203 701.412 52.3502 706.523 56.695C711.635 60.9547 714.276 67.1738 714.276 75.3524V118.716H700.389V113.945H700.474ZM700.474 87.4498H687.014C680.028 87.4498 675.087 88.387 672.105 90.2612C669.123 92.1355 667.675 94.6061 667.675 97.7582C667.675 100.484 668.782 102.785 671.083 104.744C673.383 106.704 676.535 107.641 680.624 107.641C686.929 107.641 691.87 106.533 695.278 104.403C698.771 102.273 700.474 99.2065 700.474 95.3728V87.4498Z" fill="white"/>
<path d="M743.158 31.222C743.158 34.0334 742.476 36.2484 741.113 37.7819C739.75 39.3154 737.535 40.0821 734.383 40.0821C731.231 40.0821 728.931 39.3154 727.567 37.7819C726.204 36.2484 725.523 34.1186 725.523 31.222C725.523 28.4106 726.204 26.2808 727.567 24.9177C728.931 23.4694 731.146 22.7878 734.383 22.7878C737.535 22.7878 739.75 23.4694 741.113 24.9177C742.476 26.366 743.158 28.4106 743.158 31.222ZM727.397 50.8165V118.63H741.284V50.8165H727.397Z" fill="white"/>
<path d="M772.037 65.8987C769.737 68.5397 768.63 72.4586 768.63 77.7406V118.633H754.743V77.3146C754.743 67.347 757.469 60.3611 762.836 56.2719C768.204 52.1826 775.786 50.1379 785.583 50.1379C795.465 50.1379 803.048 52.1826 808.415 56.2719C813.782 60.3611 816.423 67.347 816.423 77.3146V118.633H802.537V77.7406C802.537 72.4586 801.429 68.5397 799.129 65.8987C796.829 63.2577 792.399 61.9798 785.668 61.9798C778.768 61.9798 774.252 63.2577 772.037 65.8987Z" fill="white"/>
<path fill-rule="evenodd" clip-rule="evenodd" d="M18 0C8.05887 0 0 8.05887 0 18V140C0 149.941 8.05887 158 18 158H140C149.941 158 158 149.941 158 140V18C158 8.05887 149.941 0 140 0H18ZM68.1065 138.131L124.417 72.4904C125.896 70.6972 124.362 68.0347 122.061 68.5237L63.9983 79.6087C64.3269 78.5219 65.1486 77.5982 66.1893 77.1635L85.5802 68.9041C86.4566 68.578 87.0591 67.8173 87.2235 66.8936L95.2208 22.8797C95.659 20.4345 92.5368 18.9674 90.8935 20.8692L34.5834 86.5639C33.1044 88.3028 34.6381 90.9653 36.9387 90.5306L95.0017 79.3913C94.6731 80.4781 93.8514 81.4018 92.8107 81.8365L73.4198 90.0959C72.5434 90.422 71.9409 91.1827 71.7765 92.1064L63.7792 136.12C63.341 138.566 66.4632 140.033 68.1065 138.131Z" fill="white"/>
</svg>
